<svg xmlns="http://www.w3.org/2000/svg" data-name="Layer 1" viewBox="0 0 100 125" x="0px" y="0px"><path d="M15.36,39.49H28.68a0,0,0,0,1,0,0v4.8a7.11,7.11,0,0,1-7.11,7.11h0a7.11,7.11,0,0,1-7.11-7.11v-3.9A.89.89,0,0,1,15.36,39.49Z"/><path d="M28.45,39.49H43.12a0,0,0,0,1,0,0v5.18A7.11,7.11,0,0,1,36,51.79h-.46a7.11,7.11,0,0,1-7.11-7.11V39.49a0,0,0,0,1,0,0Z"/><path d="M42.89,39.49H57.11a0,0,0,0,1,0,0v4.8A7.11,7.11,0,0,1,50,51.4h0a7.11,7.11,0,0,1-7.11-7.11v-4.8A0,0,0,0,1,42.89,39.49Z"/><path d="M57,39.49H71.46a0,0,0,0,1,0,0v5a7.11,7.11,0,0,1-7.11,7.11h-.27A7.11,7.11,0,0,1,57,44.52v-5A0,0,0,0,1,57,39.49Z"/><path d="M71.32,39.49H84.64a.89.89,0,0,1,.89.89v3.9a7.11,7.11,0,0,1-7.11,7.11h0a7.11,7.11,0,0,1-7.11-7.11v-4.8a0,0,0,0,1,0,0Z"/><path d="M21.17,20.09,14.91,36.87a.9.9,0,0,0,.84,1.2h68.5a.9.9,0,0,0,.84-1.2L78.83,20.09a3.87,3.87,0,0,0-3.62-2.52H24.79A3.87,3.87,0,0,0,21.17,20.09Z"/><path d="M78.43,52.87a8.58,8.58,0,0,1-7.11-3.78,8.57,8.57,0,0,1-14.21,0,8.58,8.58,0,0,1-14.22,0,8.57,8.57,0,0,1-14.21,0,8.58,8.58,0,0,1-7.11,3.78,8.28,8.28,0,0,1-2.29-.32V71.61A10.82,10.82,0,0,0,30.1,82.43H40a1,1,0,0,0,1-1V61.58a2.53,2.53,0,0,1,2.53-2.53H56.44A2.53,2.53,0,0,1,59,61.58V81.4a1,1,0,0,0,1,1h9.9A10.82,10.82,0,0,0,80.72,71.61V52.55A8.28,8.28,0,0,1,78.43,52.87Z"/><text x="0" y="115" fill="#000000" font-size="5px" font-weight="bold" font-family="'Helvetica Neue', Helvetica, Arial-Unicode, Arial, Sans-serif">Created by Rizalwale</text><text x="0" y="120" fill="#000000" font-size="5px" font-weight="bold" font-family="'Helvetica Neue', Helvetica, Arial-Unicode, Arial, Sans-serif">from the Noun Project</text></svg>